<svg xmlns="http://www.w3.org/2000/svg" viewBox="0 0 1600 900" preserveAspectRatio="xMidYMid slice"><defs><radialGradient id="g1" cx="18%" cy="55%" r="42%"><stop offset="0" stop-color="#e6d2a5" stop-opacity=".78"/><stop offset=".35" stop-color="#6d7fa0" stop-opacity=".25"/><stop offset="1" stop-color="#07101d" stop-opacity="0"/></radialGradient><radialGradient id="g2" cx="72%" cy="46%" r="55%"><stop offset="0" stop-color="#99b7ff" stop-opacity=".33"/><stop offset=".45" stop-color="#7adac7" stop-opacity=".13"/><stop offset="1" stop-color="#07101d" stop-opacity="0"/></radialGradient><linearGradient id="r" x1="0" y1="1" x2="1" y2="0"><stop offset="0" stop-color="#d9c184" stop-opacity=".12"/><stop offset=".52" stop-color="#9fb7ff" stop-opacity=".35"/><stop offset="1" stop-color="#a5f2d8" stop-opacity=".2"/></linearGradient><filter id="blur"><feGaussianBlur stdDeviation="18"/></filter></defs><rect width="1600" height="900" fill="#070d18"/><rect width="1600" height="900" fill="url(#g1)"/><rect width="1600" height="900" fill="url(#g2)"/><g opacity=".18" stroke="#f3dca7" stroke-width="1" fill="none"><circle cx="165" cy="520" r="260"/><circle cx="165" cy="520" r="170"/><path d="M0 520H1600M165 0V900M0 700C350 520 570 640 880 460S1290 150 1600 250"/></g><g opacity=".72"><path d="M120 610 300 470 520 560 365 700Z" fill="#e9d7af" opacity=".30"/><path d="M300 470 300 245 520 370 520 560Z" fill="#f8e7bd" opacity=".20"/><path d="M120 610 120 360 300 245 300 470Z" fill="#fff1ca" opacity=".16"/><path d="M120 360 300 245 520 370 310 500Z" fill="#fff6d2" opacity=".24"/></g><path d="M210 650C470 520 680 620 925 455 1125 320 1245 250 1580 190" stroke="url(#r)" stroke-width="70" opacity=".30" fill="none" filter="url(#blur)"/><path d="M210 650C470 520 680 620 925 455 1125 320 1245 250 1580 190" stroke="#dce8ff" stroke-width="3" opacity=".35" fill="none"/><g stroke="#86bdf7" stroke-opacity=".28" fill="none"><path d="M700 600 830 470 1005 510 1150 370 1310 420 1490 290"/><path d="M910 660 1005 510 1220 585 1310 420"/><path d="M830 470 930 340 1150 370"/></g><g fill="#dbeafe" opacity=".95"><circle cx="700" cy="600" r="4"/><circle cx="830" cy="470" r="5"/><circle cx="1005" cy="510" r="6"/><circle cx="1150" cy="370" r="5"/><circle cx="1310" cy="420" r="7"/><circle cx="1490" cy="290" r="4"/><circle cx="930" cy="340" r="3"/><circle cx="1220" cy="585" r="5"/></g><g fill="#fff" opacity=".55"><circle cx="760" cy="210" r="1.8"/><circle cx="980" cy="180" r="1.5"/><circle cx="1180" cy="250" r="2"/><circle cx="1380" cy="185" r="1.5"/><circle cx="600" cy="310" r="1.5"/><circle cx="420" cy="190" r="1.4"/><circle cx="1070" cy="720" r="1.4"/><circle cx="1450" cy="650" r="1.8"/></g></svg>